<mxfile host="Electron" modified="2023-09-12T20:56:24.989Z" agent="Mozilla/5.0 (X11; Linux x86_64) AppleWebKit/537.36 (KHTML, like Gecko) draw.io/21.3.7 Chrome/112.0.5615.204 Electron/24.5.0 Safari/537.36" etag="KOCYCfZGdTnjf5h4qZ5X" version="21.3.7" type="device">
  <diagram name="Page-1" id="InFTU15-melP5VCeXNXV">
    <mxGraphModel dx="794" dy="1198" grid="1" gridSize="10" guides="1" tooltips="1" connect="1" arrows="1" fold="1" page="1" pageScale="1" pageWidth="850" pageHeight="1100" math="0" shadow="0">
      <root>
        <mxCell id="0" />
        <mxCell id="1" parent="0" />
        <mxCell id="4Gg_i_mihHojtwVQuKRK-1" value="" style="rounded=0;whiteSpace=wrap;html=1;gradientColor=none;fillColor=none;" vertex="1" parent="1">
          <mxGeometry x="410" y="470" width="120" height="60" as="geometry" />
        </mxCell>
        <mxCell id="4Gg_i_mihHojtwVQuKRK-2" value="" style="rounded=0;whiteSpace=wrap;html=1;fillColor=none;" vertex="1" parent="1">
          <mxGeometry x="320" y="450" width="230" height="100" as="geometry" />
        </mxCell>
        <mxCell id="4Gg_i_mihHojtwVQuKRK-3" value="" style="rounded=0;whiteSpace=wrap;html=1;fillColor=none;" vertex="1" parent="1">
          <mxGeometry x="230" y="425" width="340" height="150" as="geometry" />
        </mxCell>
        <mxCell id="4Gg_i_mihHojtwVQuKRK-4" value="" style="rounded=0;whiteSpace=wrap;html=1;fillColor=none;" vertex="1" parent="1">
          <mxGeometry x="160" y="400" width="450" height="220" as="geometry" />
        </mxCell>
        <mxCell id="4Gg_i_mihHojtwVQuKRK-5" value="&lt;font style=&quot;font-size: 28px;&quot;&gt;Data&lt;/font&gt;" style="text;html=1;strokeColor=none;fillColor=none;align=center;verticalAlign=middle;whiteSpace=wrap;rounded=0;" vertex="1" parent="1">
          <mxGeometry x="440" y="485" width="60" height="30" as="geometry" />
        </mxCell>
        <mxCell id="4Gg_i_mihHojtwVQuKRK-6" value="&lt;font style=&quot;font-size: 23px;&quot;&gt;L4-&lt;br style=&quot;font-size: 23px;&quot;&gt;Seg.&lt;/font&gt;" style="text;html=1;strokeColor=none;fillColor=none;align=center;verticalAlign=middle;whiteSpace=wrap;rounded=0;fontSize=23;" vertex="1" parent="1">
          <mxGeometry x="340" y="480" width="60" height="30" as="geometry" />
        </mxCell>
        <mxCell id="4Gg_i_mihHojtwVQuKRK-7" value="&lt;font style=&quot;font-size: 29px;&quot;&gt;IP&lt;/font&gt;" style="text;html=1;strokeColor=none;fillColor=none;align=center;verticalAlign=middle;whiteSpace=wrap;rounded=0;" vertex="1" parent="1">
          <mxGeometry x="250" y="485" width="60" height="30" as="geometry" />
        </mxCell>
        <mxCell id="4Gg_i_mihHojtwVQuKRK-8" value="&lt;font style=&quot;font-size: 24px;&quot;&gt;ETH&lt;/font&gt;" style="text;html=1;strokeColor=none;fillColor=none;align=center;verticalAlign=middle;whiteSpace=wrap;rounded=0;" vertex="1" parent="1">
          <mxGeometry x="170" y="580" width="60" height="30" as="geometry" />
        </mxCell>
        <mxCell id="4Gg_i_mihHojtwVQuKRK-9" value="" style="rounded=1;whiteSpace=wrap;html=1;fillColor=#008A00;dashed=1;strokeWidth=3;imageAspect=1;fillStyle=hatch;perimeterSpacing=0;imageHeight=24;arcSize=12;direction=east;fillOpacity=25;strokeOpacity=72;absoluteArcSize=0;labelPadding=0;imageWidth=24;imageAlign=left;overflow=visible;fontColor=#ffffff;strokeColor=#005700;" vertex="1" parent="1">
          <mxGeometry x="120" y="380" width="530" height="260" as="geometry" />
        </mxCell>
      </root>
    </mxGraphModel>
  </diagram>
</mxfile>
